<?xml version="1.0" encoding="UTF-8" standalone="no"?>
<svg
   viewBox="0 0 330 68"
   version="1.1"
   id="svg27"
   sodipodi:docname="logo-light.svg"
   inkscape:version="1.1 (c68e22c387, 2021-05-23)"
   xmlns:inkscape="http://www.inkscape.org/namespaces/inkscape"
   xmlns:sodipodi="http://sodipodi.sourceforge.net/DTD/sodipodi-0.dtd"
   xmlns="http://www.w3.org/2000/svg"
   xmlns:svg="http://www.w3.org/2000/svg">
  <defs
     id="defs31" />
  <sodipodi:namedview
     id="namedview29"
     pagecolor="#ffffff"
     bordercolor="#666666"
     borderopacity="1.0"
     inkscape:pageshadow="2"
     inkscape:pageopacity="0.0"
     inkscape:pagecheckerboard="0"
     showgrid="false"
     inkscape:zoom="5.1727273"
     inkscape:cx="165"
     inkscape:cy="33.927944"
     inkscape:window-width="1920"
     inkscape:window-height="1017"
     inkscape:window-x="1912"
     inkscape:window-y="-8"
     inkscape:window-maximized="1"
     inkscape:current-layer="svg27" />
  <path
     fill="#4FE799"
     fill-rule="evenodd"
     d="M3.317 47.535c-.303-1.178-.538-3.158-.69-4.714l1.966 1.127a1.219 1.219 0 001.69-1.61c-1.46-2.86-3.083-6.368-3.259-7.246a25.525 25.525 0 013.588-8.595c.32-.492.81-1.195 1.25-1.818l1.821 2.593c.318.453.901.634 1.42.443.525-.189.843-.709.788-1.26-.284-2.929-.445-6.485-.252-7.358 1.523-1.73 3.445-3.653 5.306-5.514 1.626-1.626 3.162-3.163 4.163-4.312a71.427 71.427 0 004.945-5.92c1.157 1.973 3.141 5.686 4.16 10.008.296 1.145.516 2.326.665 3.517l-4.465 5.86c0 .001 0 .003-.003.004a1.28 1.28 0 00-.122.2c-.02.043-.034.087-.05.132-.01.03-.025.061-.034.092-.01.04-.014.081-.02.122-.006.037-.014.074-.017.112-.003.041.002.082.004.124.001.037 0 .075.004.113.011.08.03.157.055.232v.004c.007.02.018.035.025.055.023.054.044.11.075.16.023.041.052.077.081.114.02.025.036.054.057.08.053.06.112.112.174.16l.002.003c.078.06.165.106.256.146l.077.03c.07.023.14.04.21.052a1.182 1.182 0 00.359.01c.01 0 .017-.005.026-.006.07-.012.14-.026.207-.049l3.106-1.07a25.473 25.473 0 01-3.967 10.84 64.92 64.92 0 01-1.997 2.881c-.659.48-4.193 2.2-7.198 3.568a1.216 1.216 0 00.113 2.26l1.556.533c-1.916 1.813-5.204 4.978-6.958 6.985a40.64 40.64 0 00-2.704 3.243l.675-3.357a62.305 62.305 0 017.476-20.818l4.022-6.978a1.217 1.217 0 10-2.11-1.216l-4.022 6.978A64.682 64.682 0 008.01 50.066L6.761 56.27c-1.139-2.1-2.616-5.224-3.444-8.735m2.676 19.91a1.215 1.215 0 001.405-.996l1.066-6.257c.135-.194.277-.42.452-.714.812-1.357 2.504-4.18 5.326-7.226 2.46-2.81 8.23-8.165 8.29-8.219a1.219 1.219 0 00-.437-2.046l-.6-.205c4.796-2.269 5.151-2.742 5.324-2.973a68.02 68.02 0 002.14-3.085c2.726-4.193 4.25-8.858 4.524-13.86a1.176 1.176 0 00-.01-.245c-.006-.04-.018-.079-.028-.119-.009-.034-.014-.07-.025-.105l-.003-.006a1.116 1.116 0 00-.078-.168c-.008-.017-.014-.037-.024-.052-.024-.04-.055-.076-.083-.113a1.161 1.161 0 00-.16-.174c-.025-.02-.044-.044-.069-.063-.022-.016-.047-.028-.07-.044a1.19 1.19 0 00-.214-.11c-.045-.018-.09-.038-.137-.05-.017-.005-.036-.006-.053-.01a1.313 1.313 0 00-.188-.029h-.005c-.024-.002-.046.003-.07.003a.932.932 0 00-.167.008c-.048.006-.092.02-.136.032-.03.008-.06.011-.09.021l-.017.005-1.068.368 2.33-3.056c.018-.026.031-.054.048-.08l.04-.064c.056-.1.1-.206.126-.314l.006-.039c.023-.114.03-.23.02-.345 0-.009.002-.017.001-.026 0-.01-.003-.02-.004-.03v-.005a30.303 30.303 0 00-.776-4.279c-1.32-5.596-4.132-10.197-5.056-11.71-.075-.124-.136-.22-.177-.29l-.01-.027c-.018-.042-.042-.077-.063-.115L27.245.58a1.26 1.26 0 00-.106-.143l-.038-.046a1.163 1.163 0 00-.12-.112c-.019-.015-.039-.032-.06-.047a1.118 1.118 0 00-.124-.077.74.74 0 00-.084-.044 1.452 1.452 0 00-.125-.047c-.034-.01-.066-.022-.1-.03a1.015 1.015 0 00-.137-.022c-.025-.003-.049-.01-.074-.012l-.034.001-.075.002c-.644.005-.948.398-1.747 1.47A71.395 71.395 0 0119.3 7.64c-.973 1.117-2.48 2.623-4.077 4.221-1.934 1.935-3.935 3.936-5.526 5.758-.25.284-.707.803-.553 4.646l-.277-.394a1.222 1.222 0 00-.988-.519 1.226 1.226 0 00-.996.505c-.063.088-1.576 2.18-2.312 3.312a27.974 27.974 0 00-3.958 9.555c-.067.318-.209.98 1.734 5.13l-.523-.3a1.216 1.216 0 00-1.82 1.138c.014.206.35 5.085.951 7.425 1.31 5.553 4.11 10.16 5.03 11.673.023.04.042.068.062.102L5 66.041c-.116.661.331 1.29.994 1.403M36.116 67.467h-6.159a1.253 1.253 0 110-2.507h6.16a1.254 1.254 0 110 2.507M48.227 67.467h-6.16a1.253 1.253 0 110-2.507h6.16a1.253 1.253 0 010 2.507"
     clip-rule="evenodd"
     id="path23" />
  <path
     fill="#4FE799"
     fill-rule="evenodd"
     d="M25.315 67.467h-19.1a1.253 1.253 0 010-2.507h19.1a1.254 1.254 0 110 2.507"
     clip-rule="evenodd"
     id="path25" />
  <text
     xml:space="preserve"
     style="font-style:normal;font-weight:normal;font-size:46.8582px;line-height:1.25;font-family:sans-serif;fill:#000000;fill-opacity:1;stroke:none;stroke-width:1.17145"
     x="50.123066"
     y="51.540936"
     id="text19435"
     transform="scale(1.0079968,0.99206666)"><tspan
       sodipodi:role="line"
       id="tspan19433"
       x="50.123066"
       y="51.540936"
       style="stroke-width:1.17145">EZ DocSeal</tspan></text>
</svg>
