<?xml version="1.0" standalone="no"?>
<!DOCTYPE svg PUBLIC "-//W3C//DTD SVG 20010904//EN"
 "http://www.w3.org/TR/2001/REC-SVG-20010904/DTD/svg10.dtd">
<svg version="1.0" xmlns="http://www.w3.org/2000/svg"
 width="128.000000pt" height="128.000000pt" viewBox="0 0 128.000000 128.000000"
 preserveAspectRatio="xMidYMid meet">

<g transform="translate(0.000000,128.000000) scale(0.100000,-0.100000)"
fill="#000000" stroke="none">
<path d="M328 971 l-33 -29 0 -302 0 -302 33 -29 32 -29 216 0 c139 0 223 4
237 11 26 13 56 49 57 67 0 21 -23 13 -46 -15 l-22 -28 -209 -3 c-200 -3 -210
-2 -236 18 l-27 21 0 289 0 289 26 20 c24 19 40 21 164 21 l138 0 4 -76 c4
-95 14 -104 110 -104 l68 0 0 -40 c0 -29 4 -40 15 -40 11 0 15 13 15 53 l0 52
-93 93 -92 92 -163 0 -162 0 -32 -29z m451 -149 c-17 -2 -42 -1 -55 2 -21 6
-24 12 -24 58 l0 52 55 -54 56 -55 -32 -3z"/>
<path d="M380 866 c-20 -25 4 -67 58 -101 43 -28 49 -37 76 -114 25 -72 28
-88 18 -115 -24 -67 -13 -126 24 -126 29 0 39 31 31 100 -5 44 -2 54 31 106
36 56 39 58 83 59 51 1 79 17 79 46 0 40 -63 51 -104 18 l-26 -21 -63 21 c-82
28 -85 31 -116 87 -28 53 -66 69 -91 40z m56 -54 c-9 -8 -26 10 -26 26 1 15 2
15 15 -2 8 -11 13 -21 11 -24z m304 -92 c0 -5 -10 -10 -22 -10 -19 0 -20 2 -8
10 19 13 30 13 30 0z m-120 -36 c0 -3 -11 -21 -25 -41 -21 -32 -25 -34 -31
-17 -4 10 -13 34 -20 53 -8 18 -14 35 -14 37 0 1 20 -4 45 -13 25 -8 45 -17
45 -19z m-63 -226 c-3 -7 -5 -2 -5 12 0 14 2 19 5 13 2 -7 2 -19 0 -25z"/>
<path d="M783 660 c-98 -59 -93 -199 9 -251 96 -49 208 19 208 126 0 109 -125
181 -217 125z m143 -26 c65 -43 64 -141 -2 -193 -40 -31 -114 -25 -151 12 -37
37 -43 111 -12 151 42 54 110 66 165 30z"/>
<path d="M840 580 c0 -27 -3 -30 -31 -30 -38 0 -35 -24 4 -28 19 -2 27 -10 29
-29 4 -39 28 -42 28 -4 0 28 3 31 30 31 20 0 30 5 30 15 0 10 -10 15 -30 15
-27 0 -30 3 -30 30 0 20 -5 30 -15 30 -10 0 -15 -10 -15 -30z"/>
</g>
</svg>
